<svg width="496" height="476" xmlns="http://www.w3.org/2000/svg">
 <!-- Created with Method Draw - http://github.com/duopixel/Method-Draw/ -->

 <g>
  <title>background</title>
  <rect x="-1" y="-1" width="498" height="478" id="canvas_background" fill="none"/>
  <g id="canvasGrid" display="none">
   <rect id="svg_1" width="100%" height="100%" x="0" y="0" stroke-width="0" fill="url(#gridpattern)"/>
  </g>
 </g>
 <g>
  <title>Layer 1</title>
  <g stroke="null" id="svg_23">
   <g stroke="null" id="svg_5" transform="matrix(1.164610119218209,0,0,0.9713378650239167,-2806.718944847592,-1667.2858046061865) ">
    <path stroke="null" d="m2709.72345,2161.6313l-42,0a7.9992,7.9992 0 0 0 -6.6562,3.5625l-13.625,20.4375l-155.7188,0l0,-5.9268l38.9932,-70.1879a8.0029,8.0029 0 0 0 1.0068,-3.8853l0,-48l-16,0l0,45.9268l-38.9932,70.1879a8.0029,8.0029 0 0 0 -1.0068,3.8853l0,16a8,8 0 0 0 8,8l168,0a7.9992,7.9992 0 0 0 6.6562,-3.5625l13.625,-20.4375l37.7188,0a38.1192,38.1192 0 0 0 27.8652,-12.1641l-11.73,-10.88a21.7816,21.7816 0 0 1 -16.1352,7.0441z" id="svg_6" fill="#c30707"/>
    <path stroke="null" d="m2811.72345,2117.6313a12.0134,12.0134 0 0 1 -12,12l-184,0a12.0134,12.0134 0 0 1 -12,-12l0,-116l16,0a48.054,48.054 0 0 0 48,-48l0,-32a8,8 0 0 0 -8,-8l-82.377,0a37.9538,37.9538 0 0 0 -36.0507,25.9834l-25.1623,75.4866a8.0117,8.0117 0 0 0 -0.41,2.53l0,24l16,0l0,-22.7017l24.752,-74.2548a21.9717,21.9717 0 0 1 20.871,-15.0435l74.377,0l0,24a32.0364,32.0364 0 0 1 -32,32l-32,0l0,132a28.0314,28.0314 0 0 0 28,28l184,0a28.0314,28.0314 0 0 0 28,-28l0,-332l-16,0l0,332z" id="svg_7" fill="#c30707"/>
    <path stroke="null" d="m2799.72345,1721.6313l-184,0a28.0314,28.0314 0 0 0 -28,28l0,148l16,0l0,-148a12.0134,12.0134 0 0 1 12,-12l184,0a12.0134,12.0134 0 0 1 12,12l0,20l16,0l0,-20a28.0314,28.0314 0 0 0 -28,-28z" id="svg_8" fill="#c30707"/>
    <path stroke="null" d="m2763.72345,1825.6313l16,0l0,16l16,0l0,-24a8,8 0 0 0 -8,-8l-24,0l0,16z" id="svg_9" fill="#c30707"/>
    <path stroke="null" d="m2795.72345,1993.6313l0,-24l-16,0l0,16l-16,0l0,16l24,0a8,8 0 0 0 8,-8z" id="svg_10" fill="#c30707"/>
    <path stroke="null" d="m2619.72345,1817.6313l0,24l16,0l0,-16l16,0l0,-16l-24,0a8,8 0 0 0 -8,8z" id="svg_11" fill="#c30707"/>
    <path stroke="null" d="m2723.72345,1841.6313a8,8 0 0 0 -8,8l0,40a8,8 0 0 0 8,8l40,0a8,8 0 0 0 8,-8l0,-40a8,8 0 0 0 -8,-8l-40,0zm32,40l-24,0l0,-24l24,0l0,24z" id="svg_12" fill="#c30707"/>
    <path stroke="null" d="m2643.72345,1849.6313l0,40a8,8 0 0 0 8,8l40,0a8,8 0 0 0 8,-8l0,-40a8,8 0 0 0 -8,-8l-40,0a8,8 0 0 0 -8,8zm16,8l24,0l0,24l-24,0l0,-24z" id="svg_13" fill="#c30707"/>
    <path stroke="null" d="m2771.72345,1961.6313l0,-40a8,8 0 0 0 -8,-8l-40,0a8,8 0 0 0 -8,8l0,40a8,8 0 0 0 8,8l40,0a8,8 0 0 0 8,-8zm-16,-8l-24,0l0,-24l24,0l0,24z" id="svg_14" fill="#c30707"/>
    <path stroke="null" d="m2699.72345,1961.6313l0,-40a8,8 0 0 0 -8,-8l-8,0l0,56l8,0a8,8 0 0 0 8,-8z" id="svg_15" fill="#c30707"/>
    <path stroke="null" d="m2667.72345,1753.6313l80,0l0,16l-80,0l0,-16z" id="svg_16" fill="#c30707"/>
    <path stroke="null" d="m2635.72345,1753.6313l16,0l0,16l-16,0l0,-16z" id="svg_17" fill="#c30707"/>
    <path stroke="null" d="m2763.72345,1753.6313l16,0l0,16l-16,0l0,-16z" id="svg_18" fill="#c30707"/>
    <path stroke="null" d="m2651.72345,2057.6313a56,56 0 1 0 56,-56a56.0632,56.0632 0 0 0 -56,56zm56,-40a40,40 0 1 1 -40,40a40.0455,40.0455 0 0 1 40,-40z" id="svg_19" fill="#c30707"/>
    <path stroke="null" d="m2694.06625,2079.288a8,8 0 0 0 11.3144,0l32,-32l-11.3144,-11.3134l-26.3428,26.3432l-10.3428,-10.3432l-11.3144,11.3134l16,16z" id="svg_20" fill="#c30707"/>
    <path stroke="null" d="m2491.68825,1937.6313a7.99,7.99 0 0 0 4.7041,-1.5293l16.6163,-12.08a130.9042,130.9042 0 0 0 52.331,-82.5957c0.0108,-0.062 0.0215,-0.124 0.0313,-0.1855l6.0556,-38.3653a8,8 0 0 0 -4.6445,-8.5537l-71.9,-32.061a7.9977,7.9977 0 0 0 -6.5156,0l-71.9,32.061a8,8 0 0 0 -4.6445,8.5513l5.9931,38.05c0.01,0.0625 0.02,0.1245 0.0313,0.1865a129.6819,129.6819 0 0 0 5.0166,19.1362l15.1211,-5.23a113.6289,113.6289 0 0 1 -4.3789,-16.6763l-5.0245,-31.9009l63.0428,-28.1115l63.042,28.1113l-5.085,32.2139a114.9723,114.9723 0 0 1 -45.98,72.4287l-11.8809,8.6372l-12.7275,-9.3735a117.3569,117.3569 0 0 1 -34.6075,-40.3814l-14.2187,7.336a133.4364,133.4364 0 0 0 39.3376,45.9282l17.44,12.8452a7.9868,7.9868 0 0 0 4.7448,1.5586z" id="svg_21" fill="#c30707"/>
    <path stroke="null" d="m2483.53345,1873.6289a7.9763,7.9763 0 0 0 5.6572,-2.3433l48,-48l-11.3145,-11.3135l-42.3427,42.3433l-18.3428,-18.3433l-11.3149,11.3135l24,24a7.9763,7.9763 0 0 0 5.6577,2.3433z" id="svg_22" fill="#c30707"/>
   </g>
  </g>
 </g>
</svg>