<svg xmlns="http://www.w3.org/2000/svg" version="1.1" xmlns:xlink="http://www.w3.org/1999/xlink" xmlns:svgjs="http://svgjs.com/svgjs" width="512" height="512" x="0" y="0" viewBox="0 0 488 488.03" style="enable-background:new 0 0 512 512" xml:space="preserve" class=""><g><path d="m259.605469 373.96875 53.179687-39.757812c11.636719-9.179688 28.429688-7.601563 38.148438 3.589843l-103.820313 101.660157c-14.527343 10.65625-32.101562 16.351562-50.117187 16.25l-87.171875-6.382813c-8.019531-.578125-15.957031 1.960937-22.148438 7.09375l-15.402343 12.5-14.75-84.34375.691406-.117187c21.082031-22.519532 52.980468-31.363282 82.648437-22.921876l5.453125 1.550782c8.53125 2.429687 17.5 2.898437 26.238282 1.371094l48.742187-8.53125c15.296875-2.683594 30.628906 4.539062 38.308594 18.039062zm0 0" fill="#f7caa5" data-original="#f7caa5"></path><path d="m337.074219 212.410156c0 .199219 0 .398438-.007813.601563l-.589844-.011719h-30.480468c.007812-.199219.007812-.390625.007812-.589844.035156-23.957031-9.5-46.9375-26.488281-63.832031l21.578125-21.578125.382812-.390625c22.824219 22.714844 35.640626 53.597656 35.597657 85.800781zm0 0" fill="#f4b844" data-original="#f4b844"></path><path d="m336.476562 213 .589844.011719c-.109375 32.203125-13.082031 63.027343-36.03125 85.617187l-.371094-.378906-21.589843-21.589844c17.109375-16.777344 26.800781-39.699218 26.921875-63.660156zm0 0" fill="#fedb41" data-original="#fedb41" class=""></path><path d="m279.515625 148.578125c16.988281 16.894531 26.523437 39.875 26.488281 63.832031 0 .199219 0 .390625-.007812.589844-.324219 49.542969-40.578125 89.535156-90.121094 89.539062-.460938 0-.929688 0-1.390625-.019531-49.011719-.738281-88.441406-40.523437-88.738281-89.539062-.011719-.191407-.011719-.378907-.011719-.570313.007813-49.230468 39.515625-89.351562 88.742187-90.121094.46875-.019531.929688-.019531 1.398438-.019531 23.867188-.03125 46.765625 9.433594 63.640625 26.308594zm0 0" fill="#00efd1" data-original="#00efd1" class=""></path><path d="m301.476562 126.609375-.382812.390625-21.578125 21.578125c-16.875-16.875-39.773437-26.339844-63.640625-26.308594-.46875 0-.929688 0-1.398438.019531v-30.289062l-.011718-.769531c.46875-.019531.941406-.019531 1.410156-.019531 32.101562-.039063 62.902344 12.699218 85.601562 35.398437zm0 0" fill="#fedb41" data-original="#fedb41" class=""></path><path d="m300.664062 298.25.371094.378906c-22.65625 22.445313-53.269531 35.019532-85.160156 34.980469-.46875 0-.941406 0-1.410156-.019531l.011718-.589844v-30l.007813-.480469c.460937.019531.929687.019531 1.390625.019531 23.652344.03125 46.363281-9.265624 63.199219-25.878906zm0 0" fill="#f4b844" data-original="#f4b844"></path><path d="m214.484375 302.519531-.007813.480469v30l-.011718.589844c-31.707032-.3125-62.015625-13.089844-84.378906-35.570313l21.5-21.5.46875-.460937c16.554687 16.640625 38.960937 26.140625 62.429687 26.460937zm0 0" fill="#fedb41" data-original="#fedb41" class=""></path><path d="m214.476562 92v30.289062c-23.679687.332032-46.269531 10.003907-62.851562 26.910157l-.480469-.46875-21.488281-21.492188c22.394531-22.742187 52.890625-35.691406 84.808594-36.007812zm0 0" fill="#f4b844" data-original="#f4b844"></path><path d="m152.054688 276.058594-.46875.460937-21.5 21.5c-22.570313-22.546875-35.300782-53.113281-35.402344-85.019531h29.792968l1.269532-.019531c.109375 23.671875 9.566406 46.34375 26.308594 63.078125zm0 0" fill="#f4b844" data-original="#f4b844"></path><path d="m151.144531 148.730469.480469.46875c-16.621094 16.835937-25.921875 39.554687-25.890625 63.210937 0 .191406 0 .378906.011719.570313l-1.269532.019531h-29.792968c-.007813-.199219-.007813-.390625-.007813-.589844-.050781-31.894531 12.527344-62.515625 34.980469-85.171875zm0 0" fill="#fedb41" data-original="#fedb41" class=""></path><path d="m183.746094 405.851562c-3.109375-.003906-5.707032-2.382812-5.972656-5.484374-.265626-3.101563 1.882812-5.894532 4.949218-6.425782l73.632813-12.878906c-.546875-1.417969-1.203125-2.792969-1.957031-4.109375-6.4375-11.292969-19.261719-17.335937-32.070313-15.113281l-48.738281 8.53125c-9.632813 1.671875-19.515625 1.15625-28.917969-1.511719l-5.449219-1.546875c-27.503906-7.898438-57.117187.3125-76.628906 21.246094-1.457031 1.597656-3.660156 2.285156-5.765625 1.804687-2.109375-.480469-3.792969-2.058593-4.414063-4.128906-.617187-2.070313-.074218-4.316406 1.421876-5.875 22.574218-24.226563 56.839843-33.730469 88.671874-24.589844l5.445313 1.550781c7.664063 2.171876 15.71875 2.59375 23.566406 1.230469l48.742188-8.53125c17.792969-3.089843 35.613281 5.300781 44.5625 20.988281 2.441406 4.277344 4.121093 8.945313 4.960937 13.800782.570313 3.261718-1.613281 6.371094-4.875 6.9375l-80.121094 14.011718c-.34375.0625-.691406.09375-1.042968.09375zm0 0" fill="#edb288" data-original="#edb288"></path><g fill="#00efd1"><path d="m214.476562 71c-3.316406 0-6-2.6875-6-6v-59c0-3.3125 2.683594-6 6-6 3.3125 0 6 2.6875 6 6v59c0 3.3125-2.6875 6-6 6zm0 0" fill="#00efd1" data-original="#00efd1" class=""></path><path d="m253.476562 71c-3.316406 0-6-2.6875-6-6v-40c0-3.3125 2.683594-6 6-6 3.3125 0 6 2.6875 6 6v40c0 3.3125-2.6875 6-6 6zm0 0" fill="#00efd1" data-original="#00efd1" class=""></path><path d="m176.476562 71c-3.316406 0-6-2.6875-6-6v-40c0-3.3125 2.683594-6 6-6 3.3125 0 6 2.6875 6 6v40c0 3.3125-2.6875 6-6 6zm0 0" fill="#00efd1" data-original="#00efd1" class=""></path><path d="m281.476562 81c-3.316406 0-6-2.6875-6-6v-31c0-3.3125 2.683594-6 6-6 3.3125 0 6 2.6875 6 6v31c0 3.3125-2.6875 6-6 6zm0 0" fill="#00efd1" data-original="#00efd1" class=""></path><path d="m147.476562 81c-3.316406 0-6-2.6875-6-6v-31c0-3.3125 2.683594-6 6-6 3.3125 0 6 2.6875 6 6v31c0 3.3125-2.6875 6-6 6zm0 0" fill="#00efd1" data-original="#00efd1" class=""></path></g><path d="m237.683594 185c3.316406 0 6-2.6875 6-6s-2.683594-6-6-6h-43.617188c-3.316406 0-6 2.6875-6 6s2.683594 6 6 6h12.480469c4.730469.113281 9.023437 2.796875 11.199219 7h-23.679688c-3.316406 0-6 2.6875-6 6s2.683594 6 6 6h23.699219c-.625.976562-1.375 1.867188-2.234375 2.644531-2.417969 2.289063-5.660156 3.5-8.984375 3.355469h-12.480469c-2.476562.066406-4.675781 1.613281-5.574218 3.921875-.898438 2.308594-.328126 4.929687 1.453124 6.65625l31.1875 29.515625c2.402344 2.277344 6.191407 2.175781 8.464844-.222656 2.277344-2.398438 2.179688-6.191406-.222656-8.464844l-20.355469-19.238281c5.65625-.472657 10.964844-2.914063 15-6.902344 3.109375-3.128906 5.351563-7.011719 6.507813-11.265625h7.15625c3.316406 0 6-2.6875 6-6s-2.683594-6-6-6h-7.167969c-.46875-2.492188-1.417969-4.867188-2.789063-7zm0 0" fill="#00acea" data-original="#00acea" class=""></path><path d="m72.273438 468.921875 1.710937 9.757813-53.460937 9.351562-20.507813-117.300781 53.449219-9.351563 4.058594 23.199219zm0 0" fill="#00acea" data-original="#00acea" class=""></path></g></svg>