<svg width="496" height="600" xmlns="http://www.w3.org/2000/svg">
 <!-- Created with Method Draw - http://github.com/duopixel/Method-Draw/ -->

 <g>
  <title>background</title>
  <rect x="-1" y="-1" width="498" height="602" id="canvas_background" fill="none"/>
  <g id="canvasGrid" display="none">
   <rect id="svg_1" width="100%" height="100%" x="0" y="0" stroke-width="0" fill="url(#gridpattern)"/>
  </g>
 </g>
 <g>
  <title>Layer 1</title>
  <g stroke="null" id="svg_23">
   <g stroke="null" id="svg_5" transform="matrix(2.1163042907814242,0,0,1.4874368770892095,-2259.1427163151125,-1016.6564432646303) ">
    <g stroke="null" id="svg_6">
     <path stroke="null" d="m1291.42472,807.05389l-50.8,0c-2.9,-28 -18,-54 -40.1,-70l90.9,0c5.5,0 10,-4.5 10,-10s-4.5,-10 -10,-10l-211.6,0c-5.5,0 -10,4.5 -10,10s4.5,10 10,10l60.6,0c41.2,0 75.2,31 80.1,70l-140.7,0c-5.5,0 -10,4.5 -10,10s4.5,10 10,10l140.7,0c-5,40.5 -39.4,70.9 -80.1,71l-60.5,0c-5.6,0.1 -10.1,4.7 -10,10.3c0,2.7 1.2,5.3 3.1,7.2l151.3,143.1c4,3.8 10.3,3.6 14.1,-0.4c3.8,-4.1 3.6,-10.4 -0.4,-14.3l-133.1,-125.9l35.4,0c52.2,0 95.3,-40 100.3,-91l50.8,0c5.5,0 10,-4.5 10,-10s-4.5,-10 -10,-10z" id="svg_7" fill="#00bf00"/>
    </g>
   </g>
   <g stroke="null" id="svg_8" transform="matrix(2.1163042907814242,0,0,1.4874368770892095,-2259.1427163151125,-1016.6564432646303) "/>
   <g stroke="null" id="svg_9" transform="matrix(2.1163042907814242,0,0,1.4874368770892095,-2259.1427163151125,-1016.6564432646303) "/>
   <g stroke="null" id="svg_10" transform="matrix(2.1163042907814242,0,0,1.4874368770892095,-2259.1427163151125,-1016.6564432646303) "/>
   <g stroke="null" id="svg_11" transform="matrix(2.1163042907814242,0,0,1.4874368770892095,-2259.1427163151125,-1016.6564432646303) "/>
   <g stroke="null" id="svg_12" transform="matrix(2.1163042907814242,0,0,1.4874368770892095,-2259.1427163151125,-1016.6564432646303) "/>
   <g stroke="null" id="svg_13" transform="matrix(2.1163042907814242,0,0,1.4874368770892095,-2259.1427163151125,-1016.6564432646303) "/>
   <g stroke="null" id="svg_14" transform="matrix(2.1163042907814242,0,0,1.4874368770892095,-2259.1427163151125,-1016.6564432646303) "/>
   <g stroke="null" id="svg_15" transform="matrix(2.1163042907814242,0,0,1.4874368770892095,-2259.1427163151125,-1016.6564432646303) "/>
   <g stroke="null" id="svg_16" transform="matrix(2.1163042907814242,0,0,1.4874368770892095,-2259.1427163151125,-1016.6564432646303) "/>
   <g stroke="null" id="svg_17" transform="matrix(2.1163042907814242,0,0,1.4874368770892095,-2259.1427163151125,-1016.6564432646303) "/>
   <g stroke="null" id="svg_18" transform="matrix(2.1163042907814242,0,0,1.4874368770892095,-2259.1427163151125,-1016.6564432646303) "/>
   <g stroke="null" id="svg_19" transform="matrix(2.1163042907814242,0,0,1.4874368770892095,-2259.1427163151125,-1016.6564432646303) "/>
   <g stroke="null" id="svg_20" transform="matrix(2.1163042907814242,0,0,1.4874368770892095,-2259.1427163151125,-1016.6564432646303) "/>
   <g stroke="null" id="svg_21" transform="matrix(2.1163042907814242,0,0,1.4874368770892095,-2259.1427163151125,-1016.6564432646303) "/>
   <g stroke="null" id="svg_22" transform="matrix(2.1163042907814242,0,0,1.4874368770892095,-2259.1427163151125,-1016.6564432646303) "/>
  </g>
 </g>
</svg>