<svg width="496" height="496" xmlns="http://www.w3.org/2000/svg">

 <g>
  <title>background</title>
  <rect fill="none" id="canvas_background" height="602" width="802" y="-1" x="-1"/>
 </g>
 <g>
  <title>Layer 1</title>
  <g stroke="null" id="svg_1">
   <g stroke="null" id="svg_2">
    <path stroke="null" fill="#f7f716" id="svg_3" d="m480.048,302.4c-0.2,-0.5 -0.5,-0.9 -0.8,-1.3c-12.9,-15.9 -36.2,-18.3 -52.2,-5.4c-20,16.3 -49.1,39.8 -68,55.1c-13.3,10.7 -29.7,16.8 -46.8,17.4l-51.2,1.7c-2.1,0.1 -4,-1 -5.1,-2.7l-5.7,-9.8c-1,-1.6 -1.1,-3.5 -0.3,-5.2c0.8,-1.7 2.3,-2.9 4.1,-3.2l52.9,-10c18.6,-3.5 31.6,-21.1 29.5,-40.2c-2,-18.4 -17.6,-32.2 -36,-32.2c-0.5,0 -1.1,0 -1.8,0l-70.7,-2.9c-28.2,-1 -52.4,4.4 -80.7,18.1l-37,17.9c-5.2,-10.8 -16.1,-17.7 -28.1,-17.7l-40.9,0c-17.1,-0.1 -31,13.7 -31.1,30.8l0,152.3c0.1,17.1 14,30.9 31.1,30.9l40.9,0c17.1,0 30.9,-13.8 31,-30.9l0,-10.3l39.3,-7.2c12.7,-1.9 20.7,-2.6 34.2,-2l107.5,5c38.7,1.7 76.6,-11.1 106.3,-35.9l74.5,-61.8l0.1,-0.1c14.9,-12.7 17.1,-35 5,-50.4zm-386.9,162.7c0,6 -4.9,10.9 -10.9,10.9l-41.2,0c-6,0 -10.9,-4.9 -10.9,-10.9l0,-152.2c0,-6 4.9,-10.9 10.9,-10.9l41.2,0c6,0 10.9,4.9 10.9,10.9l0,152.2zm369,-127.6l-74.4,61.7c-25.9,21.6 -59,32.7 -92.7,31.3l-107.5,-5c-15.1,-0.7 -24.3,0.2 -38.2,2.2c-0.1,0 -0.2,0 -0.3,0.1l-35.9,6.6l0,-114l42.8,-20.7c25.2,-12.2 46.5,-17 71.2,-16.1l71.2,2.9c0.4,0 0.9,0 1.3,0c0.1,0 0.5,0 0.8,0c8.2,0.1 15.2,6.2 16.2,14.4c1,8.6 -4.8,16.6 -13.3,18.3l-52.9,10c-13.9,2.6 -23,16.1 -20.4,30c0.6,2.9 1.6,5.7 3.1,8.2l5.7,9.7c4.8,8.1 13.6,12.9 23,12.6l51.2,-1.7c21.4,-0.8 42,-8.5 58.7,-21.8c18.9,-15.3 48.1,-38.8 68.1,-55.1c7.2,-5.6 17.5,-4.7 23.6,2.1c0.2,0.4 0.5,0.8 0.8,1.2c5.7,6.9 4.8,17.3 -2.1,23.1z"/>
   </g>
  </g>
  <g id="svg_4">
   <g id="svg_5">
    <path fill="#f7f716" id="svg_6" d="m327.448,-1c-72.1,0 -130.8,58.7 -130.8,130.8s58.7,130.9 130.8,130.9s130.8,-58.7 130.8,-130.8s-58.7,-130.9 -130.8,-130.9zm0.1,241.7c-61.2,0 -110.9,-49.6 -110.9,-110.8c0,0 0,0 0,-0.1c0.1,-61.1 49.6,-110.7 110.8,-110.8c61.2,0 110.9,49.6 110.9,110.8s-49.6,110.9 -110.8,110.9z"/>
   </g>
  </g>
  <g id="svg_7">
   <g id="svg_8">
    <path fill="#f7f716" id="svg_9" d="m366.548,100l-13.4,0c-1.1,-5 -3,-9.7 -5.8,-14l19.2,0c5.5,0 10,-4.5 10,-10s-4.5,-10 -10,-10l-78.2,0c-5.5,0 -10,4.5 -10,10s4.5,10 10,10l22.4,0c9.4,0 17.6,6 21.3,14l-43.7,0c-5.5,0 -10,4.5 -10,10s4.5,10 10,10l43.7,0c-1.3,2.3 -2.8,4.4 -4.6,6.3c-4.5,4.4 -10.5,6.8 -16.7,6.7l-22.4,0c-5.6,0.1 -10.1,4.6 -10,10.2c0,2.7 1.2,5.3 3.1,7.2l55.9,52.9c4,3.8 10.3,3.6 14.1,-0.4s3.6,-10.3 -0.4,-14.1l-37.7,-35.7c10.6,-0.6 20.6,-5 28.1,-12.5c5.7,-5.7 9.7,-12.8 11.7,-20.6l13.4,0c5.5,0 10,-4.5 10,-10s-4.5,-10 -10,-10z"/>
   </g>
  </g>
  <g id="svg_10"/>
  <g id="svg_11"/>
  <g id="svg_12"/>
  <g id="svg_13"/>
  <g id="svg_14"/>
  <g id="svg_15"/>
  <g id="svg_16"/>
  <g id="svg_17"/>
  <g id="svg_18"/>
  <g id="svg_19"/>
  <g id="svg_20"/>
  <g id="svg_21"/>
  <g id="svg_22"/>
  <g id="svg_23"/>
  <g id="svg_24"/>
 </g>
</svg>