<svg xmlns="http://www.w3.org/2000/svg" version="1.1" xmlns:xlink="http://www.w3.org/1999/xlink" xmlns:svgjs="http://svgjs.com/svgjs" width="512" height="512" x="0" y="0" viewBox="0 0 473.94 473" style="enable-background:new 0 0 512 512" xml:space="preserve"><g><path d="m457.5 160.75c9.078125 0 16.441406 7.359375 16.441406 16.441406 0 9.078125-7.363281 16.4375-16.441406 16.4375h-99.019531c-9.078125 0-16.441407-7.359375-16.441407-16.4375 0-9.082031 7.363282-16.441406 16.441407-16.441406zm0 0" fill="#fedb41" data-original="#fedb41"></path><path d="m457.5 193.730469c9.078125 0 16.433594 7.359375 16.433594 16.433593 0 9.078126-7.355469 16.4375-16.433594 16.4375h-99.019531c-8.640625-.003906-15.804688-6.691406-16.402344-15.3125-.027344-.367187-.039063-.75-.039063-1.128906 0-4.359375 1.730469-8.542968 4.8125-11.625 3.085938-3.082031 7.269532-4.808594 11.628907-4.804687zm0 0" fill="#f4b844" data-original="#f4b844"></path><path d="m457.5 226.699219c9.078125 0 16.441406 7.359375 16.441406 16.441406 0 9.078125-7.363281 16.4375-16.441406 16.4375h-99.019531c-9.082031.003906-16.441407-7.359375-16.441407-16.4375 0-.109375 0-.21875.011719-.332031.171875-8.949219 7.476563-16.113282 16.429688-16.109375zm0 0" fill="#fedb41" data-original="#fedb41"></path><path d="m457.5 259.679688c9.078125 0 16.433594 7.359374 16.433594 16.433593 0 9.078125-7.355469 16.4375-16.433594 16.4375h-99.019531c-9.078125 0-16.433594-7.359375-16.433594-16.4375 0-9.074219 7.355469-16.433593 16.433594-16.433593zm0 0" fill="#f4b844" data-original="#f4b844"></path><path d="m457.5 292.648438c9.078125 0 16.441406 7.363281 16.441406 16.441406s-7.363281 16.441406-16.441406 16.441406h-99.019531c-9.078125 0-16.441407-7.363281-16.441407-16.441406s7.363282-16.441406 16.441407-16.441406zm0 0" fill="#fedb41" data-original="#fedb41"></path><path d="m457.5 226.601562v.097657h-99.019531c-8.953125-.003907-16.257813 7.160156-16.429688 16.109375h-342.050781v-242.339844h438.988281v160.28125h-31.917969v-83.070312c-35.878906-.578126-56.242187-20.820313-57.410156-45.691407h-259.761718c-1.160157 24.871094-22.109376 45.113281-57.988282 45.691407v87.921874c35.878906.578126 56.828125 20.238282 57.988282 45.6875h252.179687c.597656 8.621094 7.761719 15.308594 16.402344 15.3125zm0 0" fill="#00acea" data-original="#00acea"></path><path d="m457.5 193.628906v.101563h-99.019531c-4.359375-.003907-8.542969 1.722656-11.628907 4.804687-3.082031 3.082032-4.8125 7.265625-4.8125 11.625 0 .378906.011719.761719.039063 1.128906h-252.179687c-1.160157-25.449218-22.109376-45.109374-57.988282-45.6875v-87.921874c35.878906-.578126 56.828125-20.820313 57.988282-45.691407h259.761718c1.167969 24.871094 21.53125 45.113281 57.410156 45.691407v83.070312h-48.589843c-9.078125 0-16.441407 7.359375-16.441407 16.441406 0 9.078125 7.363282 16.4375 16.441407 16.4375zm0 0" fill="#00efd1" data-original="#00efd1"></path><path d="m289.351562 121.640625c0 38.582031-31.277343 69.859375-69.863281 69.859375-38.582031 0-69.859375-31.277344-69.859375-69.859375s31.277344-69.859375 69.859375-69.859375c38.585938 0 69.863281 31.277344 69.863281 69.859375zm0 0" fill="#00acea" data-original="#00acea"></path><path d="m241.640625 92c3.3125 0 6-2.6875 6-6s-2.6875-6-6-6h-46.300781c-3.3125 0-6 2.6875-6 6s2.6875 6 6 6h13.25c5.390625-.085938 10.308594 3.066406 12.484375 8h-25.734375c-3.3125 0-6 2.6875-6 6s2.6875 6 6 6h25.742187c-.769531 1.375-1.667969 2.671875-2.683593 3.871094-2.589844 2.628906-6.121094 4.113281-9.808594 4.128906h-13.25c-2.449219-.03125-4.664063 1.445312-5.574219 3.714844-.914063 2.273437-.335937 4.871094 1.453125 6.542968l33.121094 31.269532c2.417968 2.230468 6.179687 2.09375 8.4375-.296875 2.253906-2.390625 2.167968-6.152344-.195313-8.441407l-22.210937-20.988281c6.238281-.410156 12.113281-3.085937 16.523437-7.519531 3.457031-3.320312 5.847657-7.59375 6.863281-12.28125h7.882813c3.3125 0 6-2.6875 6-6s-2.6875-6-6-6h-7.890625c-.675781-3-1.816406-5-3.335938-8zm0 0" fill="#fedb41" data-original="#fedb41"></path></g></svg>