<svg xmlns="http://www.w3.org/2000/svg" viewBox="0 0 149 74" width="145" height="72">
	<style>
		tspan { white-space:pre }
		.shp0 { fill: #42413d } 
		.shp1 { fill: #db0910 } 
	</style>
	<g id="g4">
		<g id="g6">
			<path id="path8" fill-rule="evenodd" class="shp0" d="M90.14 18.28L90.14 21.54L86.67 21.54L86.67 46.69L82.02 46.69L82.02 22.38L82.91 21.54L78.93 21.54L78.93 18.28L90.14 18.28ZM92.09 30.51L92.09 22.44L93.03 21.54L92 21.54L92 18.28L96.76 18.28L96.76 30.51L92.09 30.51ZM103.29 21.6L103.29 26.27C103.29 26.43 103.36 26.59 103.48 26.74C103.6 26.9 103.77 27.04 103.97 27.17C104.17 27.3 104.39 27.41 104.64 27.48C104.89 27.56 105.14 27.6 105.39 27.6L105.39 24.36L110.03 24.36L110.03 30.51L104.61 30.51C103.92 30.51 103.23 30.4 102.52 30.16C101.81 29.93 101.18 29.61 100.61 29.21C100.05 28.82 99.59 28.36 99.22 27.84C98.86 27.31 98.68 26.76 98.68 26.18L98.68 22.44L99.62 21.54L98.59 21.54L98.59 18.28L110.03 18.28L110.03 21.6L103.29 21.6ZM111.92 30.51L111.92 22.48L112.9 21.54L111.89 21.54L111.89 15.62L116.57 15.62L116.57 18.28L124.02 18.28L124.02 30.51L119.32 30.51L119.32 21.6L116.6 21.6L116.6 30.51L111.92 30.51ZM137.06 18.28L137.06 21.54L133.59 21.54L133.59 30.51L128.95 30.51L128.95 22.38L129.84 21.54L125.85 21.54L125.85 18.28L137.06 18.28Z" />
			<path id="path10" fill-rule="evenodd" class="shp0" d="M92.15 46.59L92.15 38.56L93.12 37.62L92.12 37.62L92.12 31.7L96.79 31.7L96.79 34.36L104.25 34.36L104.25 46.59L99.55 46.59L99.55 37.68L96.82 37.68L96.82 46.59L92.15 46.59ZM114.34 41.88L110.78 41.88L110.78 42.02C110.78 42.33 110.96 42.61 111.31 42.86C111.67 43.11 112.02 43.27 112.36 43.35L115.94 43.35L115.94 46.59L112.1 46.59C111.3 46.59 110.54 46.47 109.82 46.24C109.11 46.01 108.48 45.69 107.93 45.29C107.39 44.89 106.96 44.44 106.64 43.91C106.33 43.39 106.17 42.84 106.17 42.25L106.17 38.52L107.11 37.62L106.08 37.62L106.08 34.36L115.94 34.36L115.94 37.68L110.78 37.68L110.78 39.01L114.34 39.01L114.34 41.88Z" />
			<path id="path12" fill-rule="evenodd" class="shp1" d="M82.1 52.31L83.05 51.41L82.01 51.41L82.01 48.14L86.77 48.14L86.77 50.96L89.04 53.4L89.04 51.49L88.32 51.49L88.32 48.14L93.68 48.14L93.68 60.38L89.04 60.38L89.04 56.94L86.77 54.49L86.77 60.38L82.1 60.38L82.1 52.31ZM107.78 60.38L99.61 60.38C99.06 60.38 98.55 60.26 98.08 60.01C97.61 59.77 97.2 59.46 96.85 59.09C96.5 58.71 96.22 58.29 96.02 57.84C95.82 57.38 95.72 56.94 95.72 56.53L95.72 52.35L96.58 51.41L95.54 51.41L95.54 48.14L100.36 48.14L100.36 55.94C100.36 56.04 100.39 56.16 100.46 56.29C100.53 56.42 100.61 56.55 100.72 56.67C100.82 56.8 100.94 56.9 101.08 56.99C101.21 57.07 101.35 57.11 101.51 57.11L103.17 57.11L103.17 48.14L107.78 48.14L107.78 60.38ZM120.86 48.14L120.86 51.41L117.39 51.41L117.39 60.38L112.74 60.38L112.74 52.25L113.63 51.41L109.65 51.41L109.65 48.14L120.86 48.14Z" />
			<path id="path14" fill-rule="evenodd" class="shp0" d="M98.68 25.94L102.51 28.23L105.25 30.51L98.68 30.51L98.68 25.94Z" />
			<path id="path16" fill-rule="evenodd" class="shp0" d="M106.17 42.02L110 44.3L112.74 46.59L106.17 46.59L106.17 42.02L106.17 42.02Z" />
			<path id="path18" fill-rule="evenodd" class="shp1" d="M95.72 55.8L99.54 58.09L102.28 60.38L95.72 60.38L95.72 55.8Z" />
		</g>
		<g id="g20">
			<path id="path22" fill-rule="evenodd" class="shp1" d="M22.94 50.68L22.94 25.32L32.36 28.79L32.29 28.79L32.29 47.22L32.32 47.22L22.94 50.68L22.94 50.68Z" />
			<path id="path24" fill-rule="evenodd" class="shp1" d="M72.8 25.33L72.8 50.67L63.43 47.22L63.45 47.22L63.45 28.79L63.39 28.79L72.8 25.33L72.8 25.33Z" />
			<path id="path26" fill-rule="evenodd" class="shp0" d="M60.81 17.18L72.55 23.23L63.14 26.69L56.9 23.48L47.9 18.45L38.89 23.48L32.66 26.69L23.25 23.23L34.98 17.18L47.9 9.96L60.81 17.18ZM34.98 58.82L23.25 52.77L32.66 49.31L38.89 52.52L47.9 57.55L56.9 52.52L63.14 49.31L72.55 52.77L60.81 58.82L47.9 66.04L34.98 58.82Z" />
			<path id="path28" fill-rule="evenodd" class="shp1" d="M22.94 25.32L32.29 28.79L72.8 44.11L72.8 50.67L63.45 47.24L22.94 31.75L22.94 25.32L22.94 25.32Z" />
			<path id="path30" fill-rule="evenodd" class="shp0" d="M44.6 58.15L44.6 42.12L51.13 44.62L51.13 58.15L44.6 58.15ZM44.6 31.37L44.6 17.85L51.13 17.85L51.13 33.84L44.6 31.37Z" />
		</g>
	</g>
</svg>